# xmcd CD Database Entry
#
# Track frame offsets:
# 150
# 29098
# 51502
# 74051
# 98946
# 121416
# 142280
# 158750
# 181050
# 199749
#
# Disc length: 2965 seconds
#
# Revision: 2
# Processed by: cddbd v1.4PL0 Copyright (c) Steve Scherf et al.
# Submitted via: tcd 2.0b
#
DISCID=9d0b930a
DTITLE=Creed - My Own Prison
DYEAR=1900
DGENRE=
TTITLE0=Torn
TTITLE1=Ode
TTITLE2=My Own Prison
TTITLE3=Pity for a Dime
TTITLE4=In Americia
TTITLE5=Illusion
TTITLE6=Unforgiven
TTITLE7=Sister
TTITLE8=What's This Life For
TTITLE9=One
EXTD=
EXTT0=
EXTT1=
EXTT2=
EXTT3=
EXTT4=
EXTT5=
EXTT6=
EXTT7=
EXTT8=
EXTT9=
PLAYORDER=
